CalSansUI-Bold.ufo
<glyph name="three" format="2">
  <advance width="589"/>
  <unicode hex="0033"/>
  <outline>
    <contour>
      <point x="276" y="-13" type="curve" smooth="yes"/>
      <point x="426" y="-13"/>
      <point x="520" y="72"/>
      <point x="520" y="203" type="curve" smooth="yes"/>
      <point x="520" y="272"/>
      <point x="470" y="347"/>
      <point x="390" y="369" type="curve"/>
      <point x="390" y="373" type="line"/>
      <point x="456" y="386"/>
      <point x="504" y="446"/>
      <point x="504" y="517" type="curve" smooth="yes"/>
      <point x="504" y="634"/>
      <point x="407" y="713"/>
      <point x="274" y="713" type="curve" smooth="yes"/>
      <point x="146" y="713"/>
      <point x="35" y="634"/>
      <point x="38" y="500" type="curve"/>
      <point x="173" y="500" type="line"/>
      <point x="170" y="546"/>
      <point x="215" y="583"/>
      <point x="273" y="583" type="curve" smooth="yes"/>
      <point x="331" y="583"/>
      <point x="369" y="548"/>
      <point x="369" y="498" type="curve" smooth="yes"/>
      <point x="369" y="444"/>
      <point x="332" y="408"/>
      <point x="271" y="408" type="curve" smooth="yes"/>
      <point x="186" y="408" type="line"/>
      <point x="186" y="290" type="line"/>
      <point x="271" y="291" type="line" smooth="yes"/>
      <point x="345" y="292"/>
      <point x="381" y="260"/>
      <point x="381" y="202" type="curve" smooth="yes"/>
      <point x="381" y="150"/>
      <point x="346" y="108"/>
      <point x="276" y="108" type="curve" smooth="yes"/>
      <point x="215" y="108"/>
      <point x="166" y="151"/>
      <point x="169" y="209" type="curve"/>
      <point x="29" y="209" type="line"/>
      <point x="26" y="73"/>
      <point x="124" y="-13"/>
    </contour>
  </outline>
</glyph>
<glyph name="eight" format="2">
  <advance width="588"/>
  <unicode hex="0038"/>
  <outline>
    <contour>
      <point x="294" y="-13" type="curve" smooth="yes"/>
      <point x="445" y="-13"/>
      <point x="536" y="75"/>
      <point x="536" y="191" type="curve" smooth="yes"/>
      <point x="536" y="281"/>
      <point x="491" y="339"/>
      <point x="430" y="367" type="curve"/>
      <point x="430" y="370" type="line"/>
      <point x="485" y="404"/>
      <point x="516" y="451"/>
      <point x="516" y="514" type="curve" smooth="yes"/>
      <point x="516" y="627"/>
      <point x="439" y="713"/>
      <point x="294" y="713" type="curve" smooth="yes"/>
      <point x="150" y="713"/>
      <point x="72" y="627"/>
      <point x="72" y="514" type="curve" smooth="yes"/>
      <point x="72" y="451"/>
      <point x="103" y="404"/>
      <point x="159" y="370" type="curve"/>
      <point x="159" y="367" type="line"/>
      <point x="97" y="339"/>
      <point x="52" y="281"/>
      <point x="52" y="191" type="curve" smooth="yes"/>
      <point x="52" y="75"/>
      <point x="144" y="-13"/>
    </contour>
    <contour>
      <point x="294" y="107" type="curve" smooth="yes"/>
      <point x="234" y="107"/>
      <point x="190" y="153"/>
      <point x="190" y="206" type="curve" smooth="yes"/>
      <point x="190" y="264"/>
      <point x="234" y="307"/>
      <point x="294" y="307" type="curve" smooth="yes"/>
      <point x="354" y="307"/>
      <point x="398" y="264"/>
      <point x="398" y="206" type="curve" smooth="yes"/>
      <point x="398" y="153"/>
      <point x="354" y="107"/>
    </contour>
    <contour>
      <point x="295" y="419" type="curve" smooth="yes"/>
      <point x="243" y="419"/>
      <point x="206" y="455"/>
      <point x="206" y="507" type="curve" smooth="yes"/>
      <point x="206" y="555"/>
      <point x="243" y="594"/>
      <point x="295" y="594" type="curve" smooth="yes"/>
      <point x="349" y="594"/>
      <point x="384" y="555"/>
      <point x="383" y="507" type="curve" smooth="yes"/>
      <point x="382" y="455"/>
      <point x="347" y="419"/>
    </contour>
  </outline>
</glyph>
<glyph name="C" format="2">
  <advance width="689"/>
  <unicode hex="0043"/>
  <anchor x="407" y="0" name="bottom"/>
  <anchor x="510" y="0" name="ogonek"/>
  <anchor x="407" y="700" name="top"/>
  <outline>
    <contour>
      <point x="407" y="-13" type="curve" smooth="yes"/>
      <point x="529" y="-13"/>
      <point x="614" y="36"/>
      <point x="667" y="100" type="curve"/>
      <point x="564" y="190" type="line"/>
      <point x="525" y="147"/>
      <point x="469" y="125"/>
      <point x="410" y="125" type="curve" smooth="yes"/>
      <point x="270" y="125"/>
      <point x="185" y="221"/>
      <point x="185" y="349" type="curve" smooth="yes"/>
      <point x="185" y="477"/>
      <point x="270" y="575"/>
      <point x="407" y="575" type="curve" smooth="yes"/>
      <point x="479" y="575"/>
      <point x="524" y="550"/>
      <point x="566" y="506" type="curve"/>
      <point x="666" y="601" type="line"/>
      <point x="600" y="679"/>
      <point x="508" y="713"/>
      <point x="407" y="713" type="curve" smooth="yes"/>
      <point x="191" y="713"/>
      <point x="42" y="550"/>
      <point x="42" y="349" type="curve" smooth="yes"/>
      <point x="42" y="149"/>
      <point x="199" y="-13"/>
    </contour>
  </outline>
</glyph>
<glyph name="N" format="2">
  <advance width="776"/>
  <unicode hex="004E"/>
  <anchor x="395" y="0" name="bottom"/>
  <anchor x="676" y="0" name="ogonek"/>
  <anchor x="386" y="700" name="top"/>
  <outline>
    <contour>
      <point x="80" y="0" type="line"/>
      <point x="210" y="0" type="line"/>
      <point x="210" y="365" type="line" smooth="yes"/>
      <point x="210" y="417"/>
      <point x="208" y="455"/>
      <point x="204" y="491" type="curve"/>
      <point x="207" y="491" type="line"/>
      <point x="214" y="473"/>
      <point x="234" y="440"/>
      <point x="251" y="421" type="curve" smooth="yes"/>
      <point x="605" y="0" type="line"/>
      <point x="696" y="0" type="line"/>
      <point x="696" y="700" type="line"/>
      <point x="566" y="700" type="line"/>
      <point x="566" y="351" type="line" smooth="yes"/>
      <point x="566" y="284"/>
      <point x="570" y="246"/>
      <point x="574" y="221" type="curve"/>
      <point x="570" y="221" type="line"/>
      <point x="563" y="240"/>
      <point x="544" y="276"/>
      <point x="527" y="295" type="curve" smooth="yes"/>
      <point x="186" y="700" type="line"/>
      <point x="80" y="700" type="line"/>
    </contour>
  </outline>
</glyph>
<glyph name="f" format="2">
  <advance width="412"/>
  <unicode hex="0066"/>
  <anchor x="180" y="0" name="bottom"/>
  <anchor x="279" y="700" name="top"/>
  <outline>
    <contour>
      <point x="113" y="0" type="line"/>
      <point x="248" y="0" type="line"/>
      <point x="248" y="526" type="line" smooth="yes"/>
      <point x="248" y="577"/>
      <point x="286" y="598"/>
      <point x="330" y="598" type="curve" smooth="yes"/>
      <point x="354" y="598"/>
      <point x="373" y="596"/>
      <point x="392" y="590" type="curve"/>
      <point x="392" y="705" type="line"/>
      <point x="363" y="711"/>
      <point x="343" y="713"/>
      <point x="304" y="713" type="curve" smooth="yes"/>
      <point x="191" y="713"/>
      <point x="113" y="643"/>
      <point x="113" y="528" type="curve" smooth="yes"/>
    </contour>
    <contour>
      <point x="20" y="385" type="line"/>
      <point x="392" y="385" type="line"/>
      <point x="392" y="505" type="line"/>
      <point x="20" y="505" type="line"/>
    </contour>
  </outline>
</glyph>
<glyph name="u" format="2">
  <advance width="596"/>
  <unicode hex="0075"/>
  <anchor x="296" y="0" name="bottom"/>
  <anchor x="395" y="0" name="ogonek"/>
  <anchor x="295" y="505" name="top"/>
  <anchor x="506" y="505" name="topright"/>
  <outline>
    <contour>
      <point x="243" y="-12" type="curve" smooth="yes"/>
      <point x="315" y="-12"/>
      <point x="366" y="28"/>
      <point x="389" y="65" type="curve"/>
      <point x="395" y="65" type="line"/>
      <point x="395" y="0" type="line"/>
      <point x="526" y="0" type="line"/>
      <point x="526" y="505" type="line"/>
      <point x="391" y="505" type="line"/>
      <point x="391" y="215" type="line" smooth="yes"/>
      <point x="391" y="148"/>
      <point x="353" y="106"/>
      <point x="297" y="106" type="curve" smooth="yes"/>
      <point x="239" y="106"/>
      <point x="200" y="148"/>
      <point x="200" y="215" type="curve" smooth="yes"/>
      <point x="200" y="505" type="line"/>
      <point x="65" y="505" type="line"/>
      <point x="65" y="182" type="line" smooth="yes"/>
      <point x="65" y="71"/>
      <point x="151" y="-12"/>
    </contour>
  </outline>
</glyph>
<glyph name="section" format="2">
  <advance width="533"/>
  <unicode hex="00A7"/>
  <outline>
    <contour>
      <point x="269" y="-109" type="curve" smooth="yes"/>
      <point x="387" y="-109"/>
      <point x="470" y="-49"/>
      <point x="470" y="59" type="curve" smooth="yes"/>
      <point x="470" y="122"/>
      <point x="442" y="159"/>
      <point x="396" y="180" type="curve"/>
      <point x="396" y="182" type="line"/>
      <point x="448" y="206"/>
      <point x="473" y="244"/>
      <point x="473" y="301" type="curve" smooth="yes"/>
      <point x="473" y="428"/>
      <point x="359" y="454"/>
      <point x="295" y="475" type="curve" smooth="yes"/>
      <point x="248" y="490"/>
      <point x="209" y="503"/>
      <point x="209" y="547" type="curve" smooth="yes"/>
      <point x="209" y="579"/>
      <point x="241" y="602"/>
      <point x="280" y="602" type="curve" smooth="yes"/>
      <point x="325" y="602"/>
      <point x="350" y="582"/>
      <point x="377" y="540" type="curve"/>
      <point x="470" y="598" type="line"/>
      <point x="430" y="662"/>
      <point x="375" y="700"/>
      <point x="286" y="700" type="curve" smooth="yes"/>
      <point x="174" y="700"/>
      <point x="95" y="645"/>
      <point x="95" y="539" type="curve" smooth="yes"/>
      <point x="95" y="484"/>
      <point x="123" y="449"/>
      <point x="177" y="424" type="curve"/>
      <point x="177" y="422" type="line"/>
      <point x="121" y="399"/>
      <point x="92" y="352"/>
      <point x="92" y="293" type="curve" smooth="yes"/>
      <point x="92" y="208"/>
      <point x="148" y="161"/>
      <point x="232" y="139" type="curve" smooth="yes"/>
      <point x="299" y="122"/>
      <point x="357" y="105"/>
      <point x="357" y="52" type="curve" smooth="yes"/>
      <point x="357" y="14"/>
      <point x="326" y="-11"/>
      <point x="275" y="-11" type="curve" smooth="yes"/>
      <point x="228" y="-11"/>
      <point x="182" y="13"/>
      <point x="154" y="69" type="curve"/>
      <point x="60" y="9" type="line"/>
      <point x="107" y="-74"/>
      <point x="182" y="-109"/>
    </contour>
    <contour>
      <point x="300" y="239" type="curve" smooth="yes"/>
      <point x="247" y="239"/>
      <point x="206" y="266"/>
      <point x="206" y="302" type="curve" smooth="yes"/>
      <point x="206" y="337"/>
      <point x="235" y="360"/>
      <point x="281" y="360" type="curve" smooth="yes"/>
      <point x="325" y="360"/>
      <point x="360" y="331"/>
      <point x="360" y="294" type="curve" smooth="yes"/>
      <point x="360" y="260"/>
      <point x="337" y="239"/>
    </contour>
  </outline>
</glyph>
<glyph name="AE" format="2">
  <advance width="1013"/>
  <unicode hex="00C6"/>
  <anchor x="603" y="0" name="bottom"/>
  <anchor x="856" y="0" name="ogonek"/>
  <anchor x="603" y="700" name="top"/>
  <anchor x="560" y="700" name="top_ring"/>
  <outline>
    <contour>
      <point x="11" y="0" type="line"/>
      <point x="183" y="0" type="line"/>
      <point x="287" y="166" type="line"/>
      <point x="307" y="207" type="line"/>
      <point x="452" y="445" type="line" smooth="yes"/>
      <point x="478" y="488"/>
      <point x="507" y="537"/>
      <point x="528" y="582" type="curve"/>
      <point x="497" y="565" type="line"/>
      <point x="672" y="565" type="line"/>
      <point x="588" y="700" type="line"/>
      <point x="469" y="700" type="line"/>
    </contour>
    <contour>
      <point x="210" y="133" type="line"/>
      <point x="624" y="133" type="line"/>
      <point x="624" y="268" type="line"/>
      <point x="210" y="268" type="line"/>
    </contour>
    <component base="E" xOffset="452"/>
  </outline>
</glyph>
<glyph name="germandbls" format="2">
  <advance width="642"/>
  <unicode hex="00DF"/>
  <outline>
    <contour>
      <point x="362" y="-13" type="curve" smooth="yes"/>
      <point x="512" y="-13"/>
      <point x="593" y="100"/>
      <point x="593" y="202" type="curve" smooth="yes"/>
      <point x="593" y="264"/>
      <point x="560" y="364"/>
      <point x="442" y="389" type="curve"/>
      <point x="442" y="393" type="line"/>
      <point x="501" y="417"/>
      <point x="532" y="478"/>
      <point x="532" y="529" type="curve" smooth="yes"/>
      <point x="532" y="619"/>
      <point x="442" y="713"/>
      <point x="308" y="713" type="curve" smooth="yes"/>
      <point x="166" y="713"/>
      <point x="70" y="611"/>
      <point x="70" y="494" type="curve" smooth="yes"/>
      <point x="70" y="0" type="line"/>
      <point x="205" y="0" type="line"/>
      <point x="205" y="494" type="line" smooth="yes"/>
      <point x="205" y="554"/>
      <point x="251" y="590"/>
      <point x="304" y="590" type="curve" smooth="yes"/>
      <point x="347" y="590"/>
      <point x="398" y="557"/>
      <point x="398" y="501" type="curve" smooth="yes"/>
      <point x="398" y="451"/>
      <point x="360" y="415"/>
      <point x="287" y="415" type="curve"/>
      <point x="287" y="307" type="line"/>
      <point x="412" y="326"/>
      <point x="459" y="260"/>
      <point x="459" y="205" type="curve" smooth="yes"/>
      <point x="459" y="140"/>
      <point x="404" y="108"/>
      <point x="358" y="108" type="curve" smooth="yes"/>
      <point x="329" y="108"/>
      <point x="304" y="116"/>
      <point x="285" y="123" type="curve"/>
      <point x="285" y="4" type="line"/>
      <point x="304" y="-8"/>
      <point x="341" y="-13"/>
    </contour>
  </outline>
</glyph>
<glyph name="jdotless" format="2">
  <advance width="275"/>
  <unicode hex="0237"/>
  <anchor x="46" y="-233" name="bottom"/>
  <anchor x="60" y="-233" name="ogonek"/>
  <anchor x="137" y="505" name="top"/>
  <outline>
    <contour>
      <point x="46" y="-233" type="curve" smooth="yes"/>
      <point x="149" y="-233"/>
      <point x="205" y="-170"/>
      <point x="205" y="-67" type="curve" smooth="yes"/>
      <point x="205" y="505" type="line"/>
      <point x="70" y="505" type="line"/>
      <point x="70" y="-60" type="line" smooth="yes"/>
      <point x="70" y="-93"/>
      <point x="54" y="-110"/>
      <point x="24" y="-110" type="curve" smooth="yes"/>
      <point x="10" y="-110"/>
      <point x="-3" y="-108"/>
      <point x="-16" y="-103" type="curve"/>
      <point x="-35" y="-223" type="line"/>
      <point x="-10" y="-230"/>
      <point x="16" y="-233"/>
    </contour>
  </outline>
</glyph>
<glyph name="Xi" format="2">
  <advance width="550"/>
  <unicode hex="039E"/>
  <outline>
    <contour>
      <point x="69" y="0" type="line"/>
      <point x="481" y="0" type="line"/>
      <point x="481" y="135" type="line"/>
      <point x="69" y="135" type="line"/>
    </contour>
    <contour>
      <point x="74" y="287" type="line"/>
      <point x="474" y="287" type="line"/>
      <point x="474" y="422" type="line"/>
      <point x="74" y="422" type="line"/>
    </contour>
    <contour>
      <point x="69" y="565" type="line"/>
      <point x="479" y="565" type="line"/>
      <point x="479" y="700" type="line"/>
      <point x="69" y="700" type="line"/>
    </contour>
  </outline>
</glyph>
<glyph name="perthousand" format="2">
  <advance width="1066"/>
  <unicode hex="2030"/>
  <outline>
    <contour>
      <point x="67" y="0" type="line"/>
      <point x="177" y="0" type="line"/>
      <point x="674" y="700" type="line"/>
      <point x="565" y="700" type="line"/>
    </contour>
    <contour>
      <point x="540" y="-8" type="curve" smooth="yes"/>
      <point x="631" y="-8"/>
      <point x="696" y="60"/>
      <point x="696" y="144" type="curve" smooth="yes"/>
      <point x="696" y="229"/>
      <point x="631" y="299"/>
      <point x="540" y="299" type="curve" smooth="yes"/>
      <point x="449" y="299"/>
      <point x="385" y="229"/>
      <point x="385" y="144" type="curve" smooth="yes"/>
      <point x="385" y="60"/>
      <point x="449" y="-8"/>
    </contour>
    <contour>
      <point x="540" y="72" type="curve" smooth="yes"/>
      <point x="499" y="72"/>
      <point x="471" y="104"/>
      <point x="471" y="144" type="curve" smooth="yes"/>
      <point x="471" y="186"/>
      <point x="499" y="218"/>
      <point x="540" y="218" type="curve" smooth="yes"/>
      <point x="581" y="218"/>
      <point x="609" y="186"/>
      <point x="609" y="144" type="curve" smooth="yes"/>
      <point x="611" y="103"/>
      <point x="582" y="71"/>
    </contour>
    <contour>
      <point x="200" y="401" type="curve" smooth="yes"/>
      <point x="291" y="401"/>
      <point x="356" y="469"/>
      <point x="356" y="553" type="curve" smooth="yes"/>
      <point x="356" y="637"/>
      <point x="292" y="708"/>
      <point x="200" y="708" type="curve" smooth="yes"/>
      <point x="109" y="708"/>
      <point x="45" y="638"/>
      <point x="45" y="553" type="curve" smooth="yes"/>
      <point x="45" y="469"/>
      <point x="109" y="401"/>
    </contour>
    <contour>
      <point x="200" y="481" type="curve" smooth="yes"/>
      <point x="159" y="481"/>
      <point x="131" y="513"/>
      <point x="131" y="553" type="curve" smooth="yes"/>
      <point x="131" y="595"/>
      <point x="159" y="627"/>
      <point x="200" y="627" type="curve" smooth="yes"/>
      <point x="242" y="627"/>
      <point x="269" y="595"/>
      <point x="269" y="553" type="curve" smooth="yes"/>
      <point x="271" y="512"/>
      <point x="243" y="481"/>
    </contour>
    <contour>
      <point x="890" y="-8" type="curve" smooth="yes"/>
      <point x="981" y="-8"/>
      <point x="1046" y="60"/>
      <point x="1046" y="144" type="curve" smooth="yes"/>
      <point x="1046" y="229"/>
      <point x="981" y="299"/>
      <point x="890" y="299" type="curve" smooth="yes"/>
      <point x="799" y="299"/>
      <point x="735" y="229"/>
      <point x="735" y="144" type="curve" smooth="yes"/>
      <point x="735" y="60"/>
      <point x="799" y="-8"/>
    </contour>
    <contour>
      <point x="890" y="72" type="curve" smooth="yes"/>
      <point x="849" y="72"/>
      <point x="821" y="104"/>
      <point x="821" y="144" type="curve" smooth="yes"/>
      <point x="821" y="186"/>
      <point x="849" y="218"/>
      <point x="890" y="218" type="curve" smooth="yes"/>
      <point x="931" y="218"/>
      <point x="959" y="186"/>
      <point x="959" y="144" type="curve" smooth="yes"/>
      <point x="961" y="103"/>
      <point x="932" y="71"/>
    </contour>
  </outline>
</glyph>
<glyph name="minute" format="2">
  <advance width="308"/>
  <unicode hex="2032"/>
  <outline>
    <contour>
      <point x="85" y="433" type="line"/>
      <point x="156" y="433" type="line"/>
      <point x="248" y="700" type="line"/>
      <point x="97" y="700" type="line"/>
    </contour>
  </outline>
</glyph>
<glyph name="interrobang" format="2">
  <advance width="540"/>
  <unicode hex="203D"/>
  <outline>
    <contour>
      <point x="213" y="213" type="line"/>
      <point x="313" y="213" type="line"/>
      <point x="319" y="346" type="line"/>
      <point x="288" y="273" type="line"/>
      <point x="361" y="342" type="line"/>
      <point x="320" y="401" type="line"/>
      <point x="323" y="412"/>
      <point x="325" y="419"/>
      <point x="325" y="431" type="curve" smooth="yes"/>
      <point x="329" y="533" type="line"/>
      <point x="196" y="533" type="line"/>
    </contour>
    <contour>
      <point x="265" y="298" type="line"/>
      <point x="399" y="298"/>
      <point x="500" y="387"/>
      <point x="500" y="506" type="curve" smooth="yes"/>
      <point x="500" y="624"/>
      <point x="399" y="713"/>
      <point x="264" y="713" type="curve" smooth="yes"/>
      <point x="133" y="713"/>
      <point x="34" y="632"/>
      <point x="34" y="500" type="curve"/>
      <point x="160" y="500" type="line"/>
      <point x="160" y="566"/>
      <point x="201" y="607"/>
      <point x="265" y="607" type="curve" smooth="yes"/>
      <point x="332" y="607"/>
      <point x="374" y="563"/>
      <point x="374" y="494" type="curve" smooth="yes"/>
      <point x="374" y="433"/>
      <point x="332" y="395"/>
      <point x="265" y="395" type="curve"/>
    </contour>
    <component base="period" xOffset="122"/>
  </outline>
</glyph>
<glyph name="won" format="2">
  <advance width="1046"/>
  <unicode hex="20A9"/>
  <outline>
    <contour>
      <point x="250" y="30" type="line"/>
      <point x="370" y="30" type="line"/>
      <point x="493" y="394" type="line" smooth="yes"/>
      <point x="511" y="447"/>
      <point x="517" y="471"/>
      <point x="520" y="496" type="curve"/>
      <point x="525" y="496" type="line"/>
      <point x="530" y="471"/>
      <point x="537" y="447"/>
      <point x="555" y="394" type="curve" smooth="yes"/>
      <point x="678" y="30" type="line"/>
      <point x="798" y="30" type="line"/>
      <point x="993" y="670" type="line"/>
      <point x="849" y="670" type="line"/>
      <point x="757" y="305" type="line" smooth="yes"/>
      <point x="744" y="252"/>
      <point x="740" y="218"/>
      <point x="734" y="193" type="curve"/>
      <point x="731" y="193" type="line"/>
      <point x="725" y="218"/>
      <point x="719" y="251"/>
      <point x="701" y="305" type="curve" smooth="yes"/>
      <point x="581" y="670" type="line"/>
      <point x="467" y="670" type="line"/>
      <point x="347" y="305" type="line" smooth="yes"/>
      <point x="330" y="253"/>
      <point x="323" y="218"/>
      <point x="317" y="193" type="curve"/>
      <point x="314" y="193" type="line"/>
      <point x="308" y="218"/>
      <point x="305" y="251"/>
      <point x="291" y="305" type="curve" smooth="yes"/>
      <point x="199" y="670" type="line"/>
      <point x="55" y="670" type="line"/>
    </contour>
    <contour>
      <point x="40" y="271" type="line"/>
      <point x="1006" y="271" type="line"/>
      <point x="1006" y="333" type="line"/>
      <point x="40" y="333" type="line"/>
    </contour>
    <contour>
      <point x="40" y="368" type="line"/>
      <point x="1006" y="368" type="line"/>
      <point x="1006" y="430" type="line"/>
      <point x="40" y="430" type="line"/>
    </contour>
  </outline>
</glyph>
<glyph name="sheqel" format="2">
  <advance width="600"/>
  <unicode hex="20AA"/>
  <outline>
    <contour>
      <point x="237" y="30" type="line"/>
      <point x="375" y="30" type="line" smooth="yes"/>
      <point x="520" y="30"/>
      <point x="559" y="103"/>
      <point x="559" y="230" type="curve" smooth="yes"/>
      <point x="559" y="474" type="line"/>
      <point x="474" y="474" type="line"/>
      <point x="474" y="244" type="line" smooth="yes"/>
      <point x="474" y="204"/>
      <point x="445" y="160"/>
      <point x="354" y="160" type="curve" smooth="yes"/>
      <point x="237" y="160" type="line"/>
    </contour>
    <contour>
      <point x="42" y="30" type="line"/>
      <point x="127" y="30" type="line"/>
      <point x="127" y="475" type="line"/>
      <point x="42" y="475" type="line"/>
    </contour>
    <contour>
      <point x="186" y="30" type="line"/>
      <point x="271" y="30" type="line"/>
      <point x="271" y="296" type="line"/>
      <point x="186" y="296" type="line"/>
    </contour>
    <contour>
      <point x="330" y="208" type="line"/>
      <point x="415" y="208" type="line"/>
      <point x="415" y="275" type="line" smooth="yes"/>
      <point x="415" y="402"/>
      <point x="376" y="475"/>
      <point x="231" y="475" type="curve" smooth="yes"/>
      <point x="93" y="475" type="line"/>
      <point x="93" y="345" type="line"/>
      <point x="210" y="345" type="line" smooth="yes"/>
      <point x="302" y="345"/>
      <point x="330" y="307"/>
      <point x="330" y="262" type="curve" smooth="yes"/>
    </contour>
  </outline>
</glyph>
<glyph name="dong" format="2">
  <advance width="590"/>
  <unicode hex="20AB"/>
  <anchor x="292.0" y="48.9292" name="_bar"/>
  <outline>
    <contour>
      <point x="262" y="106" type="curve" smooth="yes"/>
      <point x="328" y="106"/>
      <point x="371" y="144"/>
      <point x="390" y="190" type="curve"/>
      <point x="396" y="190" type="line"/>
      <point x="396" y="116" type="line"/>
      <point x="527" y="116" type="line"/>
      <point x="527" y="700" type="line"/>
      <point x="392" y="700" type="line"/>
      <point x="392" y="457" type="line"/>
      <point x="386" y="457" type="line"/>
      <point x="367" y="506"/>
      <point x="324" y="543"/>
      <point x="262" y="543" type="curve" smooth="yes"/>
      <point x="135" y="543"/>
      <point x="50" y="453"/>
      <point x="50" y="319" type="curve" smooth="yes"/>
      <point x="50" y="196"/>
      <point x="135" y="106"/>
    </contour>
    <contour>
      <point x="291" y="219" type="curve" smooth="yes"/>
      <point x="236" y="219"/>
      <point x="185" y="256"/>
      <point x="185" y="320" type="curve" smooth="yes"/>
      <point x="185" y="393"/>
      <point x="236" y="430"/>
      <point x="291" y="430" type="curve" smooth="yes"/>
      <point x="346" y="430"/>
      <point x="392" y="393"/>
      <point x="392" y="319" type="curve" smooth="yes"/>
      <point x="392" y="256"/>
      <point x="346" y="219"/>
    </contour>
    <component base="strokeshortcomb" xScale="1.2979" yScale="0.7092" xOffset="292" yOffset="-200"/>
    <component base="strokeshortcomb" xScale="0.7863" yScale="0.7089" xOffset="422" yOffset="368"/>
  </outline>
</glyph>
<glyph name="kip" format="2">
  <advance width="648"/>
  <unicode hex="20AD"/>
  <anchor x="323.0" y="28.0" name="bottom"/>
  <anchor x="462.0" y="28.0" name="ogonek"/>
  <anchor x="313.0" y="674.4622" name="top"/>
  <outline>
    <contour>
      <point x="0" y="317" type="line"/>
      <point x="638" y="317" type="line"/>
      <point x="638" y="402" type="line"/>
      <point x="0" y="402" type="line"/>
    </contour>
    <component base="K" yScale="0.9222" yOffset="28"/>
  </outline>
</glyph>
<glyph name="hryvnia" format="2">
  <advance width="580"/>
  <unicode hex="20B4"/>
  <outline>
    <contour>
      <point x="308" y="27" type="curve" smooth="yes"/>
      <point x="419" y="27"/>
      <point x="505" y="56"/>
      <point x="571" y="160" type="curve"/>
      <point x="450" y="244" type="line"/>
      <point x="418" y="187"/>
      <point x="362" y="161"/>
      <point x="305" y="161" type="curve" smooth="yes"/>
      <point x="252" y="161"/>
      <point x="213" y="186"/>
      <point x="213" y="228" type="curve" smooth="yes"/>
      <point x="213" y="264"/>
      <point x="248" y="281"/>
      <point x="283" y="302" type="curve"/>
      <point x="86" y="319" type="line"/>
      <point x="71" y="296"/>
      <point x="62" y="267"/>
      <point x="62" y="230" type="curve" smooth="yes"/>
      <point x="62" y="95"/>
      <point x="159" y="27"/>
    </contour>
    <contour>
      <point x="8" y="257" type="line"/>
      <point x="574" y="257" type="line"/>
      <point x="574" y="342" type="line"/>
      <point x="8" y="342" type="line"/>
    </contour>
    <contour>
      <point x="8" y="378" type="line"/>
      <point x="574" y="378" type="line"/>
      <point x="574" y="463" type="line"/>
      <point x="8" y="463" type="line"/>
    </contour>
    <contour>
      <point x="300" y="416" type="curve"/>
      <point x="513" y="416" type="line"/>
      <point x="519" y="432"/>
      <point x="522" y="451"/>
      <point x="522" y="473" type="curve" smooth="yes"/>
      <point x="522" y="607"/>
      <point x="421" y="672"/>
      <point x="283" y="672" type="curve" smooth="yes"/>
      <point x="174" y="672"/>
      <point x="112" y="633"/>
      <point x="56" y="554" type="curve"/>
      <point x="172" y="474" type="line"/>
      <point x="203" y="525"/>
      <point x="242" y="539"/>
      <point x="297" y="539" type="curve" smooth="yes"/>
      <point x="336" y="539"/>
      <point x="371" y="514"/>
      <point x="371" y="488" type="curve" smooth="yes"/>
      <point x="371" y="446"/>
      <point x="343" y="432"/>
    </contour>
  </outline>
</glyph>
<glyph name="trademark" format="2">
  <advance width="867"/>
  <unicode hex="2122"/>
  <outline>
    <contour>
      <point x="368" y="315" type="line"/>
      <point x="457" y="315" type="line"/>
      <point x="457" y="451" type="line" smooth="yes"/>
      <point x="457" y="516"/>
      <point x="457" y="541"/>
      <point x="450" y="590" type="curve"/>
      <point x="428" y="610" type="line"/>
      <point x="565" y="315" type="line"/>
      <point x="624" y="315" type="line"/>
      <point x="761" y="610" type="line"/>
      <point x="741" y="590" type="line"/>
      <point x="735" y="541"/>
      <point x="733" y="516"/>
      <point x="733" y="451" type="curve" smooth="yes"/>
      <point x="733" y="315" type="line"/>
      <point x="822" y="315" type="line"/>
      <point x="822" y="700" type="line"/>
      <point x="712" y="700" type="line"/>
      <point x="635" y="539" type="line" smooth="yes"/>
      <point x="595" y="455"/>
      <point x="595" y="436"/>
      <point x="589" y="409" type="curve"/>
      <point x="603" y="409" type="line"/>
      <point x="598" y="436"/>
      <point x="596" y="454"/>
      <point x="557" y="539" type="curve" smooth="yes"/>
      <point x="481" y="700" type="line"/>
      <point x="368" y="700" type="line"/>
    </contour>
    <contour>
      <point x="127" y="315" type="line"/>
      <point x="219" y="315" type="line"/>
      <point x="219" y="655" type="line"/>
      <point x="182" y="616" type="line"/>
      <point x="321" y="616" type="line"/>
      <point x="321" y="700" type="line"/>
      <point x="25" y="700" type="line"/>
      <point x="25" y="616" type="line"/>
      <point x="164" y="616" type="line"/>
      <point x="127" y="655" type="line"/>
    </contour>
  </outline>
</glyph>
<glyph name="Ohm" format="2">
  <advance width="794"/>
  <unicode hex="2126"/>
  <outline>
    <contour>
      <point x="20" y="0" type="line"/>
      <point x="343" y="0" type="line"/>
      <point x="343" y="105" type="line"/>
      <point x="279" y="116"/>
      <point x="185" y="203"/>
      <point x="185" y="349" type="curve" smooth="yes"/>
      <point x="185" y="496"/>
      <point x="281" y="575"/>
      <point x="397" y="575" type="curve" smooth="yes"/>
      <point x="512" y="575"/>
      <point x="609" y="496"/>
      <point x="609" y="349" type="curve" smooth="yes"/>
      <point x="609" y="212"/>
      <point x="525" y="125"/>
      <point x="467" y="105" type="curve"/>
      <point x="467" y="0" type="line"/>
      <point x="774" y="0" type="line"/>
      <point x="774" y="133" type="line"/>
      <point x="669" y="133" type="line"/>
      <point x="669" y="135" type="line"/>
      <point x="722" y="188"/>
      <point x="752" y="268"/>
      <point x="752" y="349" type="curve" smooth="yes"/>
      <point x="752" y="557"/>
      <point x="600" y="713"/>
      <point x="397" y="713" type="curve" smooth="yes"/>
      <point x="194" y="713"/>
      <point x="42" y="557"/>
      <point x="42" y="349" type="curve" smooth="yes"/>
      <point x="42" y="267"/>
      <point x="74" y="187"/>
      <point x="126" y="135" type="curve"/>
      <point x="126" y="133" type="line"/>
      <point x="20" y="133" type="line"/>
    </contour>
  </outline>
</glyph>
<glyph name="minus" format="2">
  <advance width="596"/>
  <unicode hex="2212"/>
  <outline>
    <contour>
      <point x="65" y="261" type="line"/>
      <point x="517" y="261" type="line"/>
      <point x="517" y="371" type="line"/>
      <point x="65" y="371" type="line"/>
    </contour>
  </outline>
</glyph>
<glyph name="because" format="2">
  <advance width="594"/>
  <unicode hex="2235"/>
  <outline>
    <contour>
      <point x="459" y="288" type="curve" smooth="yes"/>
      <point x="484" y="288"/>
      <point x="504" y="308"/>
      <point x="504" y="333" type="curve" smooth="yes"/>
      <point x="504" y="358"/>
      <point x="484" y="378"/>
      <point x="459" y="378" type="curve" smooth="yes"/>
      <point x="434" y="378"/>
      <point x="414" y="358"/>
      <point x="414" y="333" type="curve" smooth="yes"/>
      <point x="414" y="308"/>
      <point x="434" y="288"/>
    </contour>
    <contour>
      <point x="297" y="0" type="curve" smooth="yes"/>
      <point x="322" y="0"/>
      <point x="342" y="20"/>
      <point x="342" y="45" type="curve" smooth="yes"/>
      <point x="342" y="70"/>
      <point x="322" y="90"/>
      <point x="297" y="90" type="curve" smooth="yes"/>
      <point x="272" y="90"/>
      <point x="252" y="70"/>
      <point x="252" y="45" type="curve" smooth="yes"/>
      <point x="252" y="20"/>
      <point x="272" y="0"/>
    </contour>
    <contour>
      <point x="135" y="288" type="curve" smooth="yes"/>
      <point x="160" y="288"/>
      <point x="180" y="308"/>
      <point x="180" y="333" type="curve" smooth="yes"/>
      <point x="180" y="358"/>
      <point x="160" y="378"/>
      <point x="135" y="378" type="curve" smooth="yes"/>
      <point x="110" y="378"/>
      <point x="90" y="358"/>
      <point x="90" y="333" type="curve" smooth="yes"/>
      <point x="90" y="308"/>
      <point x="110" y="288"/>
    </contour>
  </outline>
</glyph>
<glyph name="lessequal" format="2">
  <advance width="596"/>
  <unicode hex="2264"/>
  <outline>
    <contour>
      <point x="531" y="220" type="line"/>
      <point x="530" y="336" type="line"/>
      <point x="299" y="429" type="line"/>
      <point x="299" y="431" type="line"/>
      <point x="530" y="524" type="line"/>
      <point x="531" y="640" type="line"/>
      <point x="52" y="430" type="line"/>
    </contour>
    <contour>
      <point x="79" y="81" type="line"/>
      <point x="531" y="81" type="line"/>
      <point x="531" y="191" type="line"/>
      <point x="79" y="191" type="line"/>
    </contour>
  </outline>
</glyph>
<glyph name="rightanglebracket-math" format="2">
  <advance width="375"/>
  <unicode hex="27E9"/>
  <outline>
    <contour>
      <point x="40" y="-220" type="line"/>
      <point x="195" y="-220" type="line"/>
      <point x="365" y="240" type="line"/>
      <point x="195" y="700" type="line"/>
      <point x="41" y="700" type="line"/>
      <point x="210" y="238" type="line"/>
      <point x="210" y="233" type="line"/>
    </contour>
  </outline>
</glyph>
<glyph name="a.ss01" format="2">
  <advance width="654"/>
  <anchor x="312" y="0" name="bottom"/>
  <anchor x="449" y="0" name="ogonek"/>
  <anchor x="306" y="505" name="top"/>
  <outline>
    <contour>
      <point x="290" y="-13" type="curve" smooth="yes"/>
      <point x="362" y="-13"/>
      <point x="428" y="21"/>
      <point x="447" y="74" type="curve"/>
      <point x="453" y="74" type="line"/>
      <point x="453" y="0" type="line"/>
      <point x="584" y="0" type="line"/>
      <point x="584" y="505" type="line"/>
      <point x="453" y="505" type="line"/>
      <point x="453" y="429" type="line"/>
      <point x="447" y="429" type="line"/>
      <point x="428" y="484"/>
      <point x="362" y="518"/>
      <point x="290" y="518" type="curve" smooth="yes"/>
      <point x="141" y="518"/>
      <point x="40" y="393"/>
      <point x="40" y="252" type="curve" smooth="yes"/>
      <point x="40" y="112"/>
      <point x="141" y="-13"/>
    </contour>
    <contour>
      <point x="312" y="110" type="curve" smooth="yes"/>
      <point x="233" y="110"/>
      <point x="175" y="171"/>
      <point x="175" y="253" type="curve" smooth="yes"/>
      <point x="175" y="334"/>
      <point x="233" y="395"/>
      <point x="312" y="395" type="curve" smooth="yes"/>
      <point x="391" y="395"/>
      <point x="449" y="334"/>
      <point x="449" y="252" type="curve" smooth="yes"/>
      <point x="449" y="171"/>
      <point x="391" y="110"/>
    </contour>
  </outline>
</glyph>
<glyph name="acutecomb.case" format="2">
  <anchor x="0" y="700" name="_top"/>
  <anchor x="0" y="820" name="top"/>
  <outline>
    <contour>
      <point x="-37" y="740" type="line"/>
      <point x="36" y="740" type="line"/>
      <point x="153" y="857" type="line"/>
      <point x="12" y="857" type="line"/>
    </contour>
  </outline>
</glyph>
<glyph name="ae.ss01" format="2">
  <advance width="1017"/>
  <anchor x="516" y="0" name="bottom"/>
  <anchor x="449" y="0" name="ogonek"/>
  <anchor x="516" y="505" name="top"/>
  <outline>
    <contour>
      <point x="738" y="-13" type="curve" smooth="yes"/>
      <point x="832" y="-13"/>
      <point x="911" y="26"/>
      <point x="954" y="75" type="curve"/>
      <point x="865" y="165" type="line"/>
      <point x="839" y="129"/>
      <point x="781" y="107"/>
      <point x="731" y="107" type="curve" smooth="yes"/>
      <point x="680" y="107"/>
      <point x="593" y="150"/>
      <point x="586" y="239" type="curve"/>
      <point x="585" y="260" type="line"/>
      <point x="581" y="381"/>
      <point x="680" y="409"/>
      <point x="719" y="409" type="curve" smooth="yes"/>
      <point x="799" y="409"/>
      <point x="844" y="357"/>
      <point x="841" y="265" type="curve"/>
      <point x="881" y="316" type="line"/>
      <point x="531" y="316" type="line"/>
      <point x="531" y="216" type="line"/>
      <point x="973" y="216" type="line"/>
      <point x="976" y="225"/>
      <point x="977" y="245"/>
      <point x="977" y="262" type="curve" smooth="yes"/>
      <point x="977" y="416"/>
      <point x="879" y="518"/>
      <point x="758" y="518" type="curve" smooth="yes"/>
      <point x="606" y="518"/>
      <point x="554" y="419"/>
      <point x="554" y="249" type="curve" smooth="yes"/>
      <point x="554" y="99"/>
      <point x="602" y="-13"/>
    </contour>
    <contour>
      <point x="459" y="429" type="line"/>
      <point x="459" y="74" type="line"/>
      <point x="604" y="74" type="line"/>
      <point x="554" y="262" type="line"/>
      <point x="604" y="429" type="line"/>
    </contour>
    <component base="a.ss01"/>
  </outline>
</glyph>
<glyph name="caroncomb.alt" format="2">
  <anchor x="37" y="700" name="_topright"/>
  <outline>
    <contour>
      <point x="13" y="543" type="line"/>
      <point x="109" y="543" type="line"/>
      <point x="209" y="700" type="line"/>
      <point x="51" y="700" type="line"/>
    </contour>
  </outline>
</glyph>
<glyph name="circumflexcomb.case" format="2">
  <anchor x="0" y="700" name="_top"/>
  <anchor x="0" y="835" name="top"/>
  <outline>
    <contour>
      <point x="-160" y="740" type="line"/>
      <point x="-49" y="740" type="line"/>
      <point x="0" y="794" type="line"/>
      <point x="3" y="794" type="line"/>
      <point x="51" y="740" type="line"/>
      <point x="160" y="740" type="line"/>
      <point x="56" y="849" type="line"/>
      <point x="-53" y="849" type="line"/>
    </contour>
  </outline>
</glyph>
<glyph name="f_t.ss11" format="2">
  <advance width="686"/>
  <anchor x="367" y="0" name="caret_1"/>
  <outline>
    <contour>
      <point x="113" y="0" type="line"/>
      <point x="248" y="0" type="line"/>
      <point x="248" y="502" type="line" smooth="yes"/>
      <point x="248" y="560"/>
      <point x="279" y="590"/>
      <point x="337" y="590" type="curve" smooth="yes"/>
      <point x="392" y="590"/>
      <point x="421" y="563"/>
      <point x="421" y="510" type="curve" smooth="yes"/>
      <point x="421" y="0" type="line"/>
      <point x="556" y="0" type="line"/>
      <point x="556" y="498" type="line" smooth="yes"/>
      <point x="556" y="630"/>
      <point x="472" y="713"/>
      <point x="337" y="713" type="curve" smooth="yes"/>
      <point x="199" y="713"/>
      <point x="113" y="630"/>
      <point x="113" y="498" type="curve" smooth="yes"/>
    </contour>
    <contour>
      <point x="20" y="385" type="line"/>
      <point x="666" y="385" type="line"/>
      <point x="666" y="505" type="line"/>
      <point x="20" y="505" type="line"/>
    </contour>
  </outline>
</glyph>
<glyph name="guarani.ss02" format="2">
  <advance width="670"/>
  <anchor x="378" y="653" name="_TopCurrency"/>
  <outline>
    <contour>
      <point x="378" y="22" type="curve" smooth="yes"/>
      <point x="492" y="22"/>
      <point x="586" y="67"/>
      <point x="636" y="124" type="curve"/>
      <point x="636" y="402" type="line"/>
      <point x="337" y="402" type="line"/>
      <point x="337" y="281" type="line"/>
      <point x="561" y="281" type="line"/>
      <point x="504" y="298" type="line"/>
      <point x="504" y="143" type="line"/>
      <point x="541" y="211" type="line"/>
      <point x="504" y="171"/>
      <point x="437" y="150"/>
      <point x="381" y="150" type="curve" smooth="yes"/>
      <point x="268" y="150"/>
      <point x="179" y="230"/>
      <point x="179" y="349" type="curve" smooth="yes"/>
      <point x="179" y="473"/>
      <point x="262" y="549"/>
      <point x="382" y="549" type="curve" smooth="yes"/>
      <point x="447" y="549"/>
      <point x="489" y="525"/>
      <point x="529" y="485" type="curve"/>
      <point x="624" y="573" type="line"/>
      <point x="561" y="645"/>
      <point x="474" y="677"/>
      <point x="378" y="677" type="curve" smooth="yes"/>
      <point x="197" y="677"/>
      <point x="42" y="532"/>
      <point x="42" y="349" type="curve" smooth="yes"/>
      <point x="42" y="156"/>
      <point x="187" y="22"/>
    </contour>
    <component base="verticalTopCurrencycomb" xOffset="378"/>
    <component base="verticalBottomCurrencycomb" xOffset="378"/>
  </outline>
</glyph>
<glyph name="guarani.tf.ss02" format="2">
  <advance width="596"/>
  <anchor x="324" y="653" name="_TopCurrency"/>
  <outline>
    <contour>
      <point x="327" y="22" type="curve" smooth="yes"/>
      <point x="434" y="22"/>
      <point x="527" y="67"/>
      <point x="577" y="124" type="curve"/>
      <point x="577" y="392" type="line"/>
      <point x="273" y="392" type="line"/>
      <point x="273" y="278" type="line"/>
      <point x="502" y="278" type="line"/>
      <point x="451" y="298" type="line"/>
      <point x="451" y="143" type="line"/>
      <point x="481" y="211" type="line"/>
      <point x="454" y="171"/>
      <point x="388" y="150"/>
      <point x="330" y="150" type="curve" smooth="yes"/>
      <point x="209" y="150"/>
      <point x="155" y="240"/>
      <point x="155" y="349" type="curve" smooth="yes"/>
      <point x="155" y="458"/>
      <point x="218" y="549"/>
      <point x="318" y="549" type="curve" smooth="yes"/>
      <point x="369" y="549"/>
      <point x="399" y="534"/>
      <point x="441" y="486" type="curve"/>
      <point x="540" y="569" type="line"/>
      <point x="472" y="651"/>
      <point x="417" y="677"/>
      <point x="315" y="677" type="curve" smooth="yes"/>
      <point x="137" y="677"/>
      <point x="18" y="525"/>
      <point x="18" y="349" type="curve" smooth="yes"/>
      <point x="18" y="173"/>
      <point x="137" y="22"/>
    </contour>
    <component base="verticalTopCurrencycomb" xOffset="324"/>
    <component base="verticalBottomCurrencycomb" xOffset="324"/>
  </outline>
</glyph>
<glyph name="hungarumlautcomb.case" format="2">
  <anchor x="0" y="700" name="_top"/>
  <outline>
    <contour>
      <point x="42" y="740" type="line"/>
      <point x="110" y="740" type="line"/>
      <point x="215" y="853" type="line"/>
      <point x="86" y="853" type="line"/>
    </contour>
    <contour>
      <point x="-110" y="740" type="line"/>
      <point x="-42" y="740" type="line"/>
      <point x="63" y="853" type="line"/>
      <point x="-66" y="853" type="line"/>
    </contour>
  </outline>
</glyph>
<glyph name="one.numr" format="2">
  <advance width="217"/>
  <outline>
    <contour>
      <point x="85" y="315" type="line"/>
      <point x="167" y="315" type="line"/>
      <point x="167" y="707" type="line"/>
      <point x="5" y="641" type="line"/>
      <point x="36" y="563" type="line"/>
      <point x="84" y="584" type="line"/>
      <point x="85" y="583" type="line"/>
    </contour>
  </outline>
</glyph>
<glyph name="one.ss10" format="2">
  <advance width="341"/>
  <outline>
    <contour>
      <point x="123" y="0" type="line"/>
      <point x="258" y="0" type="line"/>
      <point x="258" y="700" type="line"/>
      <point x="20" y="700" type="line"/>
      <point x="20" y="567" type="line"/>
      <point x="123" y="567" type="line"/>
      <point x="123" y="562" type="line"/>
    </contour>
  </outline>
</glyph>
<glyph name="ordfeminine.ss01" format="2">
  <advance width="514"/>
  <outline>
    <contour>
      <point x="241" y="311" type="curve" smooth="yes"/>
      <point x="294" y="311"/>
      <point x="329" y="332"/>
      <point x="350" y="365" type="curve"/>
      <point x="353" y="365" type="line"/>
      <point x="353" y="320" type="line"/>
      <point x="462" y="320" type="line"/>
      <point x="462" y="705" type="line"/>
      <point x="351" y="705" type="line"/>
      <point x="351" y="660" type="line"/>
      <point x="348" y="660" type="line"/>
      <point x="327" y="692"/>
      <point x="292" y="713"/>
      <point x="241" y="713" type="curve" smooth="yes"/>
      <point x="134" y="713"/>
      <point x="49" y="622"/>
      <point x="49" y="511" type="curve" smooth="yes"/>
      <point x="49" y="399"/>
      <point x="134" y="311"/>
    </contour>
    <contour>
      <point x="266" y="414" type="curve" smooth="yes"/>
      <point x="208" y="414"/>
      <point x="172" y="460"/>
      <point x="172" y="512" type="curve" smooth="yes"/>
      <point x="172" y="564"/>
      <point x="208" y="609"/>
      <point x="266" y="609" type="curve" smooth="yes"/>
      <point x="322" y="609"/>
      <point x="360" y="564"/>
      <point x="360" y="511" type="curve" smooth="yes"/>
      <point x="360" y="458"/>
      <point x="322" y="414"/>
    </contour>
    <contour>
      <point x="67" y="157" type="line"/>
      <point x="462" y="157" type="line"/>
      <point x="462" y="256" type="line"/>
      <point x="67" y="256" type="line"/>
    </contour>
  </outline>
</glyph>
<glyph name="rupee.tf" format="2">
  <advance width="596"/>
  <outline>
    <contour>
      <point x="427" y="17" type="curve" smooth="yes"/>
      <point x="484" y="17"/>
      <point x="571" y="58"/>
      <point x="571" y="163" type="curve" smooth="yes"/>
      <point x="571" y="300"/>
      <point x="429" y="282"/>
      <point x="429" y="367" type="curve" smooth="yes"/>
      <point x="429" y="391"/>
      <point x="444" y="402"/>
      <point x="463" y="402" type="curve" smooth="yes"/>
      <point x="478" y="402"/>
      <point x="491" y="388"/>
      <point x="497" y="362" type="curve"/>
      <point x="581" y="409" type="line"/>
      <point x="564" y="463"/>
      <point x="520" y="498"/>
      <point x="468" y="498" type="curve" smooth="yes"/>
      <point x="388" y="498"/>
      <point x="332" y="445"/>
      <point x="332" y="361" type="curve" smooth="yes"/>
      <point x="332" y="230"/>
      <point x="474" y="246"/>
      <point x="474" y="161" type="curve" smooth="yes"/>
      <point x="474" y="132"/>
      <point x="455" y="113"/>
      <point x="426" y="113" type="curve" smooth="yes"/>
      <point x="399" y="113"/>
      <point x="382" y="128"/>
      <point x="360" y="156" type="curve" smooth="yes"/>
      <point x="218" y="337" type="line"/>
      <point x="143" y="278" type="line"/>
      <point x="235" y="278"/>
      <point x="327" y="349"/>
      <point x="327" y="467" type="curve" smooth="yes"/>
      <point x="327" y="597"/>
      <point x="234" y="670"/>
      <point x="133" y="670" type="curve" smooth="yes"/>
      <point x="15" y="670" type="line"/>
      <point x="15" y="30" type="line"/>
      <point x="121" y="30" type="line"/>
      <point x="121" y="271" type="line"/>
      <point x="134" y="271" type="line"/>
      <point x="137" y="259"/>
      <point x="149" y="242"/>
      <point x="160" y="230" type="curve" smooth="yes"/>
      <point x="266" y="107" type="line" smooth="yes"/>
      <point x="318" y="47"/>
      <point x="350" y="17"/>
    </contour>
    <contour>
      <point x="121" y="369" type="line"/>
      <point x="121" y="567" type="line"/>
      <point x="131" y="567" type="line" smooth="yes"/>
      <point x="183" y="567"/>
      <point x="220" y="534"/>
      <point x="220" y="465" type="curve" smooth="yes"/>
      <point x="220" y="400"/>
      <point x="184" y="369"/>
      <point x="133" y="369" type="curve" smooth="yes"/>
    </contour>
  </outline>
</glyph>
<glyph name="rupeeIndian.tf" format="2">
  <advance width="596"/>
  <outline>
    <contour>
      <point x="299" y="20" type="line"/>
      <point x="464" y="20" type="line"/>
      <point x="223" y="307" type="line"/>
      <point x="247" y="248" type="line"/>
      <point x="378" y="258"/>
      <point x="464" y="339"/>
      <point x="464" y="460" type="curve" smooth="yes"/>
      <point x="464" y="587"/>
      <point x="388" y="680"/>
      <point x="243" y="680" type="curve" smooth="yes"/>
      <point x="30" y="680" type="line"/>
      <point x="30" y="545" type="line"/>
      <point x="202" y="545" type="line" smooth="yes"/>
      <point x="294" y="545"/>
      <point x="322" y="515"/>
      <point x="322" y="459" type="curve" smooth="yes"/>
      <point x="322" y="402"/>
      <point x="294" y="371"/>
      <point x="202" y="371" type="curve" smooth="yes"/>
      <point x="30" y="371" type="line"/>
      <point x="30" y="241" type="line"/>
      <point x="101" y="241" type="line"/>
    </contour>
    <contour>
      <point x="24" y="416" type="line"/>
      <point x="503" y="416" type="line"/>
      <point x="562" y="501" type="line"/>
      <point x="83" y="501" type="line"/>
    </contour>
    <contour>
      <point x="193" y="595" type="line"/>
      <point x="523" y="595" type="line"/>
      <point x="582" y="680" type="line"/>
      <point x="193" y="680" type="line"/>
    </contour>
  </outline>
</glyph>
<glyph name="three.numr" format="2">
  <advance width="336"/>
  <outline>
    <contour>
      <point x="160" y="308" type="curve" smooth="yes"/>
      <point x="240" y="308"/>
      <point x="295" y="355"/>
      <point x="295" y="430" type="curve" smooth="yes"/>
      <point x="295" y="474"/>
      <point x="275" y="510"/>
      <point x="232" y="528" type="curve"/>
      <point x="232" y="529" type="line"/>
      <point x="276" y="546"/>
      <point x="286" y="580"/>
      <point x="286" y="601" type="curve" smooth="yes"/>
      <point x="286" y="665"/>
      <point x="237" y="707"/>
      <point x="160" y="707" type="curve" smooth="yes"/>
      <point x="95" y="707"/>
      <point x="23" y="674"/>
      <point x="28" y="584" type="curve"/>
      <point x="108" y="584" type="line"/>
      <point x="106" y="620"/>
      <point x="135" y="634"/>
      <point x="158" y="634" type="curve" smooth="yes"/>
      <point x="196" y="634"/>
      <point x="206" y="610"/>
      <point x="206" y="591" type="curve" smooth="yes"/>
      <point x="206" y="560"/>
      <point x="177" y="549"/>
      <point x="146" y="549" type="curve" smooth="yes"/>
      <point x="107" y="549" type="line"/>
      <point x="107" y="477" type="line"/>
      <point x="146" y="477" type="line" smooth="yes"/>
      <point x="180" y="477"/>
      <point x="212" y="464"/>
      <point x="212" y="430" type="curve" smooth="yes"/>
      <point x="212" y="399"/>
      <point x="191" y="381"/>
      <point x="160" y="381" type="curve" smooth="yes"/>
      <point x="131" y="381"/>
      <point x="104" y="399"/>
      <point x="106" y="435" type="curve"/>
      <point x="23" y="435" type="line"/>
      <point x="19" y="342"/>
      <point x="92" y="308"/>
    </contour>
  </outline>
</glyph>
<glyph name="zero.ss10.numr" format="2">
  <advance width="387"/>
  <outline>
    <contour>
      <point x="192" y="308" type="curve" smooth="yes"/>
      <point x="283" y="308"/>
      <point x="348" y="375"/>
      <point x="348" y="506" type="curve" smooth="yes"/>
      <point x="348" y="635"/>
      <point x="287" y="706"/>
      <point x="192" y="706" type="curve" smooth="yes"/>
      <point x="100" y="706"/>
      <point x="39" y="637"/>
      <point x="39" y="506" type="curve" smooth="yes"/>
      <point x="39" y="374"/>
      <point x="104" y="308"/>
    </contour>
    <contour>
      <point x="193" y="386" type="curve" smooth="yes"/>
      <point x="153" y="386"/>
      <point x="127" y="417"/>
      <point x="127" y="506" type="curve" smooth="yes"/>
      <point x="127" y="602"/>
      <point x="153" y="628"/>
      <point x="193" y="628" type="curve" smooth="yes"/>
      <point x="235" y="628"/>
      <point x="260" y="602"/>
      <point x="260" y="506" type="curve" smooth="yes"/>
      <point x="260" y="417"/>
      <point x="235" y="386"/>
    </contour>
  </outline>
</glyph>
